<?xml version="1.0" encoding="utf-8"?>
<!-- Generator: Adobe Illustrator 25.1.0, SVG Export Plug-In . SVG Version: 6.00 Build 0)  -->
<svg version="1.1" id="Layer_1" xmlns="http://www.w3.org/2000/svg" xmlns:xlink="http://www.w3.org/1999/xlink" x="0px" y="0px"
	 viewBox="0 0 156 42" style="enable-background:new 0 0 156 42;" xml:space="preserve">
<style type="text/css">
	.st0{display:none;fill:#6B3232;stroke:#000000;stroke-miterlimit:10;}
	.st1{display:none;fill:none;}
	.st2{display:none;}
	.st3{display:inline;}
	.st4{fill:#FFFFFF;}
	.st5{font-family:'BunkenTechSansStdWide-UlBd';}
	.st6{font-size:22px;}
</style>
<rect x="-4.6" y="-3" class="st0" width="176" height="55.3"/>
<g>
	<rect x="-1" y="-1" class="st1" width="158" height="44"/>
</g>
<g class="st2">
	<g transform="matrix(.26458 0 0 .26458 -65.768 27.592)" class="st3">
		<path class="st4" d="M596.3-43.6c-10.4,0-15.6-3.4-15.6-10.2v-16.6c0-6.7,5.1-10.1,15.4-10.1h20.4c1.8,0,2.7,0.7,2.7,2.2
			s-0.9,2.2-2.7,2.2h-20.3c-6.5,0-9.7,1.9-9.7,5.8V-54c0,4,3.4,6,10.1,6h19.9c1.8,0,2.7,0.7,2.7,2.2c0,1.5-0.9,2.2-2.7,2.2
			L596.3-43.6L596.3-43.6z"/>
		<path class="st4" d="M644.1-43.6c-10.4,0-15.6-3.5-15.6-10.5v-24.5c0-1.5,0.9-2.2,2.8-2.2c2,0,2.9,0.7,2.9,2.2v24.3
			c0,4.2,3.4,6.2,10.1,6.2h22.1c1.8,0,2.7,0.7,2.7,2.2c0,1.5-0.9,2.2-2.7,2.2L644.1-43.6L644.1-43.6z"/>
		<path class="st4" d="M713-70.2c0-3.9-3.2-5.9-9.7-5.9h-11.7c-6.5,0-9.7,2-9.7,5.9V-54c0,4,3.3,6,9.8,6h11.5c6.5,0,9.8-2,9.8-6
			L713-70.2L713-70.2z M691.7-59.8c-10.4,0-15.6-3.4-15.6-10.2v-16.5c0-6.8,5.1-10.2,15.4-10.2h11.9c10.2,0,15.4,3.4,15.4,10.2v16.5
			c0,6.8-5.2,10.2-15.6,10.2H691.7L691.7-59.8z"/>
		<path class="st4" d="M744.6-43.6c-10.4,0-15.6-3.5-15.6-10.5v-24.5c0-1.5,1-2.2,2.9-2.2c1.9,0,2.9,0.7,2.9,2.2v24.3
			c0,4.2,3.4,6.2,10.1,6.2h11.6c6.7,0,10.1-2.1,10.1-6.2v-24.3c0-1.5,1-2.2,2.9-2.2c1.9,0,2.9,0.7,2.9,2.2v24.5
			c0,7-5.2,10.5-15.6,10.5L744.6-43.6L744.6-43.6z"/>
		<path class="st4" d="M821.3-70.1c0-4.1-3.5-6.1-10.6-6.1h-21.5c-0.3,0-0.4,0.1-0.4,0.3v27.5c0,0.2,0.1,0.3,0.4,0.3h21.5
			c7.1,0,10.7-2,10.7-6.1V-70.1z M785.5-43.6c-1.7,0-2.6-0.6-2.6-1.9v-33.2c0-1.2,0.8-1.9,2.5-1.9h25.1c11.1,0,16.6,3.4,16.6,10.3
			v16.3c0,6.9-5.5,10.3-16.6,10.3L785.5-43.6L785.5-43.6z"/>
		<path class="st4" d="M338.5,29.5c0,9.7-8.2,14.6-24.7,14.6h-49.3c-3.1,0-4.6-1.2-4.6-3.7v-58.9c0-2.5,1.5-3.7,4.6-3.7h47.8
			c16.8,0,25.2,5.3,25.2,15.8V-1c0,5-2.7,8.8-8,11.4c6,2.7,9,6.8,9,12.4C338.5,22.8,338.5,29.5,338.5,29.5z M328.2,22.4
			c0-5.4-4.9-8.1-14.7-8.1h-43.2v21.2c0,0.4,0.3,0.7,0.8,0.7h42.4c9.8,0,14.7-2.5,14.7-7.6V22.4z M327.2-6.2c0-5.5-4.9-8.3-14.8-8.3
			H271c-0.5,0-0.8,0.2-0.8,0.7V7h42.9c9.3,0,14-2.6,14-7.8C327.2-0.8,327.2-6.2,327.2-6.2z"/>
		<path class="st4" d="M424.8,15.2h-58.4v25.3c0,2.7-1.8,4-5.3,4c-3.4,0-5.1-1.3-5.1-4v-59.3c0-2.7,1.8-4,5.4-4c3.3,0,5,1.3,5,4V7.3
			h58.4v-26.2c0-2.6,1.7-3.9,5.1-3.9c3.5,0,5.3,1.3,5.3,3.9v59.4c0,2.7-1.8,4-5.3,4c-3.4,0-5.1-1.3-5.1-4V15.2z"/>
		<path class="st4" d="M518.7,26.3h-48.5l-9.9,15.5c-1.2,1.9-2.9,2.8-5,2.8c-1.6,0-2.9-0.3-3.8-1c-1-0.7-1.4-1.7-1.4-3
			c0-0.5,0.1-1,0.2-1.3c0.1-0.4,0.4-1,0.9-1.6l38-57.9c0.6-0.9,1.3-1.5,2.2-1.9c1-0.4,2-0.6,3.1-0.7c2.2,0,3.9,0.9,5.1,2.6
			l38.1,57.8c0.5,0.6,0.8,1.2,1,1.6c0.2,0.4,0.3,0.9,0.3,1.4c0,1.3-0.5,2.3-1.4,3c-1,0.6-2.2,1-3.8,1c-2,0-3.7-0.9-4.9-2.8
			C528.7,41.8,518.7,26.3,518.7,26.3z M475,19h39l-19.6-30.3C494.4-11.4,475,19,475,19z"/>
		<path class="st4" d="M622.6-3.5c0-7.3-6.4-10.9-19.1-10.9h-38.8c-0.5,0-0.8,0.2-0.8,0.6v49.5c0,0.4,0.3,0.6,0.8,0.6h38.7
			c12.8,0,19.2-3.6,19.2-10.9C622.6,25.3,622.6-3.5,622.6-3.5z M558.1,44.1c-3.1,0-4.6-1.1-4.6-3.4V-19c0-2.2,1.5-3.4,4.4-3.4h45.1
			c19.9,0,29.9,6.2,29.9,18.5v29.4c0,12.4-10,18.5-29.9,18.5L558.1,44.1L558.1,44.1z"/>
		<path class="st4" d="M717.5-3.8c0-7.1-5.8-10.7-17.5-10.7h-21c-11.6,0-17.5,3.6-17.5,10.7v29.2c0,7.2,5.9,10.8,17.7,10.8h20.6
			c11.8,0,17.7-3.6,17.7-10.8L717.5-3.8L717.5-3.8z M679.3,44.1c-18.8,0-28.1-6.1-28.1-18.4V-4c0-12.2,9.2-18.3,27.6-18.3h21.4
			c18.4,0,27.6,6.1,27.6,18.3v29.7c0,12.3-9.4,18.4-28.1,18.4H679.3L679.3,44.1z"/>
		<path class="st4" d="M812.5-3.8c0-7.1-5.8-10.7-17.5-10.7h-21c-11.6,0-17.5,3.6-17.5,10.7v29.2c0,7.2,5.9,10.8,17.7,10.8h20.6
			c11.8,0,17.7-3.6,17.7-10.8L812.5-3.8L812.5-3.8z M774.3,44.1c-18.8,0-28.1-6.1-28.1-18.4V-4c0-12.2,9.2-18.3,27.6-18.3h21.4
			c18.4,0,27.6,6.1,27.6,18.3v29.7c0,12.3-9.4,18.4-28.1,18.4H774.3L774.3,44.1z"/>
	</g>
</g>
<text transform="matrix(1 0 0 1 3.4632 29.8245)" class="st4 st5 st6">MODULAR</text>
</svg>
